<?xml version="1.0" standalone="no"?>
<!DOCTYPE svg PUBLIC "-//W3C//DTD SVG 20010904//EN"
 "http://www.w3.org/TR/2001/REC-SVG-20010904/DTD/svg10.dtd">
<svg version="1.0" xmlns="http://www.w3.org/2000/svg"
 width="253.000000pt" height="253.000000pt" viewBox="0 0 253.000000 253.000000"
 preserveAspectRatio="xMidYMid meet">
<metadata>
Created by potrace 1.14, written by Peter Selinger 2001-2017
</metadata>
<g transform="translate(0.000000,253.000000) scale(0.100000,-0.100000)"
fill="#000000" stroke="none">
<path d="M580 1860 c-23 -23 -25 -51 -9 -83 24 -45 67 -50 104 -12 46 45 19
115 -45 115 -17 0 -39 -9 -50 -20z"/>
<path d="M760 1874 c-9 -3 -21 -19 -28 -36 -14 -38 6 -85 41 -93 12 -3 233 -6
492 -8 l470 -2 -1 -22 c-1 -13 3 -20 7 -17 5 3 9 -1 9 -8 0 -8 3 -9 8 -3 11
16 52 18 52 3 0 -8 5 -6 11 5 6 10 9 24 6 31 -6 16 49 20 59 5 4 -7 3 -9 -2
-6 -6 3 -16 2 -24 -4 -8 -5 -10 -9 -5 -10 48 -5 63 -5 59 3 -3 4 2 8 11 8 10
0 13 -5 9 -12 -6 -9 -3 -9 9 0 9 8 21 11 26 7 6 -3 8 0 5 8 -3 8 2 14 11 14 9
0 14 -6 11 -14 -3 -7 -1 -13 3 -13 11 0 19 21 15 35 -3 6 -74 10 -189 9 -102
-1 -188 2 -190 6 -3 5 3 7 12 5 10 -1 26 2 37 7 10 6 16 6 13 1 -3 -4 80 -8
183 -7 104 0 187 -3 184 -7 -2 -5 -11 -6 -18 -3 -8 3 -17 1 -21 -5 -3 -6 0
-11 7 -11 9 0 9 -3 -2 -10 -9 -6 -10 -10 -3 -10 6 0 14 4 17 9 9 15 58 10 52
-5 -3 -7 0 -16 6 -20 7 -4 8 -3 4 4 -4 7 -2 12 4 12 6 0 8 5 5 10 -3 6 -1 10
4 10 6 0 11 -4 11 -10 0 -5 5 -10 11 -10 5 0 8 3 6 8 -3 4 15 8 39 9 28 1 44
-2 44 -9 0 -9 3 -9 12 0 15 15 32 16 22 1 -4 -8 -1 -8 13 -1 25 14 121 13 130
-1 3 -6 1 -7 -5 -3 -8 5 -13 -4 -14 -26 -1 -18 -3 -44 -3 -58 -1 -14 -5 -36
-10 -50 -5 -14 -8 -37 -6 -52 1 -14 -2 -29 -8 -33 -6 -3 -11 -11 -11 -16 0 -6
5 -7 12 -3 7 5 8 3 2 -7 -9 -14 -9 -17 -19 -84 -3 -22 -7 -51 -10 -65 -7 -35
-26 -149 -30 -185 -3 -16 -7 -51 -11 -77 l-6 -48 -614 0 c-338 0 -614 4 -614
8 0 5 11 14 25 20 46 21 53 87 13 120 -10 8 -104 12 -327 13 -284 1 -314 -1
-332 -17 -25 -23 -25 -78 1 -104 15 -15 34 -20 72 -21 132 -2 354 -6 360 -8
14 -2 19 -41 8 -61 -9 -17 -21 -20 -71 -20 -88 0 -119 -19 -119 -76 0 -23 7
-36 26 -48 22 -15 65 -17 360 -18 184 -1 334 -3 334 -5 0 -1 -8 -21 -17 -43
-16 -36 -21 -40 -53 -40 -19 0 -40 -4 -46 -8 -15 -10 -25 -42 -14 -42 5 0 7
-7 4 -15 -7 -17 -24 -16 296 -16 399 0 367 -2 386 26 22 33 5 55 -42 55 -27 0
-36 5 -44 24 -5 13 -8 33 -7 44 1 18 12 19 194 20 194 2 229 7 274 44 24 20
52 67 55 91 8 93 34 273 50 356 8 40 17 94 20 120 3 25 7 57 9 71 42 271 44
321 15 350 -12 12 -32 25 -46 30 -24 10 -1651 13 -1684 4z m830 -108 c0 -2 -7
-7 -16 -10 -8 -3 -12 -2 -9 4 6 10 25 14 25 6z m30 0 c0 -3 -4 -8 -10 -11 -5
-3 -10 -1 -10 4 0 6 5 11 10 11 6 0 10 -2 10 -4z m152 -41 c5 -6 8 -5 8 3 0 6
7 12 15 12 8 0 15 -2 15 -4 0 -2 2 -10 5 -18 4 -9 -5 -13 -31 -13 -27 1 -38 5
-40 18 -2 17 16 19 28 2z m148 11 c0 -2 -7 -9 -15 -16 -13 -11 -14 -10 -9 4 5
14 24 23 24 12z m40 0 c0 -11 -19 -15 -25 -6 -3 5 1 10 9 10 9 0 16 -2 16 -4z
m-270 -814 c0 -31 -23 -52 -47 -46 -42 11 -22 64 24 64 16 0 23 -6 23 -18z"/>
<path d="M1639 1728 c-6 -24 -4 -35 7 -35 7 0 11 4 8 9 -8 13 10 10 25 -4 11
-10 12 -10 7 -1 -7 12 -45 37 -47 31z"/>
<path d="M1420 1715 c0 -2 6 -8 13 -14 10 -8 14 -7 14 2 0 8 -6 14 -14 14 -7
0 -13 -1 -13 -2z"/>
<path d="M1461 1713 c-1 -6 4 -15 9 -18 6 -4 7 -12 4 -18 -4 -7 -3 -9 1 -4 5
4 10 18 12 30 2 16 1 18 -6 8 -7 -11 -9 -11 -14 0 -3 9 -6 10 -6 2z"/>
<path d="M1513 1713 c9 -3 15 -9 11 -14 -3 -5 -10 -6 -16 -3 -7 5 -8 2 -4 -5
6 -9 12 -9 24 2 10 8 24 17 32 19 8 3 -3 5 -25 5 -22 0 -32 -2 -22 -4z"/>
<path d="M1586 1708 c5 -7 -10 -12 -28 -9 -5 0 -8 -4 -8 -10 0 -7 7 -8 18 -4
9 4 25 10 35 12 23 7 22 19 -2 19 -11 0 -17 -4 -15 -8z"/>
<path d="M1268 1670 c-34 -26 -40 -64 -16 -95 23 -29 58 -32 99 -8 29 17 33
27 29 73 -3 50 -66 67 -112 30z"/>
<path d="M1650 1670 c0 -5 5 -10 11 -10 5 0 7 5 4 10 -3 6 -8 10 -11 10 -2 0
-4 -4 -4 -10z"/>
<path d="M1459 1658 c-5 -18 -6 -38 -1 -34 7 8 12 36 6 36 -2 0 -4 -1 -5 -2z"/>
<path d="M313 1642 c-25 -16 -34 -61 -19 -96 13 -31 19 -34 63 -38 26 -2 187
-3 356 -1 l309 3 -7 -43 c-4 -23 -9 -45 -12 -49 -2 -5 -81 -8 -174 -8 -98 0
-178 -4 -190 -10 -14 -8 -19 -21 -19 -54 0 -64 10 -67 259 -69 234 -3 229 -4
233 60 1 15 4 32 7 38 2 5 5 21 6 35 5 100 5 100 24 100 11 0 29 12 41 27 25
32 20 69 -12 96 -19 16 -54 17 -437 17 -229 0 -421 -4 -428 -8z"/>
<path d="M1242 1453 c-21 -8 -43 -61 -36 -88 8 -34 31 -50 67 -47 60 5 94 69
63 117 -16 24 -58 32 -94 18z"/>
<path d="M454 1378 c-15 -30 -15 -34 1 -64 34 -63 117 -44 123 28 4 46 -18 68
-68 68 -34 0 -42 -4 -56 -32z"/>
<path d="M1213 1220 c-28 -12 -47 -47 -45 -85 3 -36 16 -45 63 -45 41 0 77 25
80 55 6 72 -32 102 -98 75z"/>
<path d="M45 1160 c-27 -30 -26 -71 2 -97 43 -41 95 -25 112 34 8 26 6 37 -11
58 -25 32 -77 34 -103 5z m81 -5 c14 -4 14 -6 0 -21 -18 -17 -36 -11 -36 12 0
9 -5 12 -12 8 -7 -4 -8 -3 -4 4 4 6 13 9 21 7 8 -3 22 -7 31 -10z m-69 -37
c-3 -8 -6 -5 -6 6 -1 11 2 17 5 13 3 -3 4 -12 1 -19z m63 -46 c0 -4 -12 -8
-27 -9 -24 -1 -25 -1 -8 7 26 11 35 12 35 2z"/>
<path d="M233 1153 c-50 -76 51 -157 106 -87 27 35 27 65 -2 92 -34 32 -82 29
-104 -5z"/>
</g>
</svg>
