<?xml version="1.0" standalone="no"?>
<!DOCTYPE svg PUBLIC "-//W3C//DTD SVG 20010904//EN"
 "http://www.w3.org/TR/2001/REC-SVG-20010904/DTD/svg10.dtd">
<svg version="1.0" xmlns="http://www.w3.org/2000/svg"
 width="225.000000pt" height="225.000000pt" viewBox="0 0 225.000000 225.000000"
 preserveAspectRatio="xMidYMid meet">
<metadata>
Created by potrace 1.14, written by Peter Selinger 2001-2017
</metadata>
<g transform="translate(0.000000,225.000000) scale(0.100000,-0.100000)"
fill="#000000" stroke="none">
<path d="M1765 2080 c-9 -16 -18 -30 -21 -30 -3 0 -2 5 2 12 4 7 3 8 -4 4 -7
-4 -12 -13 -12 -20 0 -8 -12 -22 -27 -31 -25 -17 -26 -17 -19 1 4 14 1 12 -14
-6 -20 -23 -21 -23 -15 -3 5 18 2 20 -14 16 -16 -4 -19 -1 -15 14 3 12 0 20
-8 20 -7 0 -20 2 -28 4 -10 3 -25 -16 -45 -56 -41 -83 -87 -137 -165 -195 -79
-58 -129 -80 -184 -80 -22 0 -47 -4 -54 -9 -23 -14 -62 0 -79 30 -21 34 -54
38 -83 9 -23 -23 -19 -37 22 -69 34 -28 160 -61 229 -61 73 0 187 30 269 71
73 37 180 133 237 214 24 35 74 174 67 187 -10 16 -24 8 -39 -22z"/>
<path d="M1190 2067 c0 -7 -20 -33 -45 -57 -42 -41 -57 -70 -36 -70 5 0 12
-10 15 -22 9 -34 77 -78 121 -78 70 0 135 53 118 96 -3 8 1 14 8 14 10 0 10 3
1 12 -17 17 -15 26 4 24 31 -2 25 22 -10 51 -28 21 -47 28 -84 29 -26 0 -57 3
-69 7 -15 4 -23 1 -23 -6z"/>
<path d="M1068 1517 c-20 -19 -39 -44 -42 -54 -9 -27 10 -73 29 -73 12 0 15
-13 15 -58 l0 -57 -109 -63 c-60 -34 -114 -62 -119 -62 -5 0 -27 25 -47 55
-53 77 -130 122 -275 163 -63 17 -86 19 -145 12 -86 -11 -103 -17 -136 -48
-20 -18 -25 -32 -23 -55 2 -16 0 -35 -5 -41 -6 -7 1 -20 20 -37 16 -15 30 -21
32 -15 3 7 9 7 21 -3 14 -12 19 -11 34 3 10 9 22 13 25 10 4 -4 24 9 46 29 88
79 108 71 210 -86 l64 -98 -24 -16 c-54 -38 -127 -122 -154 -178 -58 -123 -40
-268 41 -330 93 -71 160 -79 265 -30 66 30 98 71 129 168 20 60 20 74 10 164
-7 63 -21 126 -41 177 -16 43 -29 80 -27 81 7 7 191 105 197 105 3 0 6 -137 6
-304 l0 -304 42 -83 c29 -59 60 -102 102 -144 83 -81 96 -66 37 43 -62 116
-65 160 -26 432 16 118 37 253 44 300 30 179 36 250 25 298 -13 54 -37 112
-47 113 -4 0 -20 2 -37 4 -16 1 -46 6 -66 10 -31 6 -39 3 -71 -28z m-326 -625
c39 -73 78 -191 78 -240 0 -67 -113 -120 -162 -74 -56 51 -67 66 -77 109 -13
50 -8 84 21 153 17 39 82 120 98 120 3 0 21 -30 42 -68z"/>
<path d="M1511 1499 c-31 -6 -52 -18 -72 -41 -38 -45 -37 -82 3 -120 l32 -30
-12 -86 c-6 -48 -28 -172 -48 -277 -46 -245 -51 -278 -50 -372 1 -82 20 -146
64 -216 13 -22 22 -40 20 -42 -2 -1 -41 -15 -87 -29 -129 -41 -406 -57 -596
-36 -44 5 -114 12 -155 16 -41 3 -111 17 -155 29 -105 31 -111 32 -102 28 18
-11 5 -23 -14 -13 -22 12 -49 7 -49 -8 0 -5 14 -12 31 -16 17 -3 45 -13 62
-21 18 -8 52 -19 77 -25 25 -5 88 -21 140 -36 155 -42 300 -41 615 7 39 6 104
23 145 38 41 15 113 40 160 56 47 15 112 40 145 55 173 80 189 85 254 85 62 0
64 -2 97 -40 42 -50 45 -95 9 -147 -19 -27 -36 -40 -68 -48 -23 -7 -58 -16
-78 -22 -20 -6 -68 -9 -107 -6 -57 3 -85 11 -153 45 -46 23 -86 40 -88 38 -9
-10 11 -36 46 -58 71 -44 140 -67 236 -78 106 -12 156 -3 262 49 99 48 120 91
89 184 -24 75 -40 95 -93 119 -82 37 -204 13 -371 -71 -80 -40 -230 -92 -230
-79 0 5 3 9 8 9 4 0 7 46 7 103 1 118 8 150 151 637 35 121 58 217 68 287 5
38 3 45 -30 79 -29 31 -93 67 -114 63 -3 -1 -25 -5 -49 -10z"/>
<path d="M132 402 c-21 -14 -2 -41 44 -62 53 -25 61 -25 73 -1 13 23 -3 46
-42 61 -34 12 -57 13 -75 2z"/>
</g>
</svg>
