<?xml version="1.0" standalone="no"?>
<!DOCTYPE svg PUBLIC "-//W3C//DTD SVG 20010904//EN"
 "http://www.w3.org/TR/2001/REC-SVG-20010904/DTD/svg10.dtd">
<svg version="1.0" xmlns="http://www.w3.org/2000/svg"
 width="2533.000000pt" height="2533.000000pt" viewBox="0 0 2533.000000 2533.000000"
 preserveAspectRatio="xMidYMid meet">
<metadata>
Created by potrace 1.14, written by Peter Selinger 2001-2017
</metadata>
<g transform="translate(0.000000,2533.000000) scale(0.100000,-0.100000)"
fill="#000000" stroke="none">
<path d="M17162 22630 c-18 -4 -43 -16 -55 -27 -12 -11 -34 -27 -49 -36 -26
-16 -28 -22 -28 -83 0 -70 16 -120 54 -165 14 -16 28 -39 32 -51 4 -13 22 -41
40 -62 19 -22 34 -45 34 -52 0 -6 16 -36 37 -65 33 -48 36 -59 37 -126 1 -56
-3 -76 -16 -90 -23 -22 -88 -19 -137 7 -36 20 -58 35 -168 120 -136 105 -178
127 -257 136 -81 10 -114 -6 -158 -74 -48 -74 -58 -103 -58 -161 0 -80 54
-141 145 -165 42 -10 62 -9 140 6 99 21 366 35 439 24 36 -6 49 -13 56 -29 7
-19 -7 -37 -106 -134 -84 -84 -127 -119 -168 -137 -89 -39 -193 -112 -226
-157 -45 -62 -42 -109 11 -179 48 -64 64 -74 143 -89 136 -25 217 -6 248 59
11 25 18 76 22 177 6 134 8 145 41 217 19 41 35 78 35 83 1 13 34 49 56 61 38
20 115 -31 129 -86 3 -15 17 -43 31 -63 21 -30 26 -54 34 -148 6 -79 14 -121
27 -140 10 -15 31 -49 48 -74 32 -50 75 -77 122 -77 47 0 164 62 210 112 45
50 61 106 49 176 -7 47 -80 114 -150 138 -27 9 -63 25 -80 35 -17 9 -50 23
-74 29 -47 12 -132 63 -199 119 -62 51 -59 77 14 121 l57 35 251 0 c286 1 318
6 341 61 29 69 11 259 -28 302 -41 44 -97 66 -169 65 -57 0 -71 -4 -110 -30
-25 -18 -71 -62 -102 -100 -136 -164 -234 -239 -298 -228 -58 10 -74 35 -74
118 0 65 3 77 33 122 18 27 35 61 38 75 3 14 19 52 34 85 34 70 53 160 48 230
-3 44 -6 52 -34 65 -17 9 -43 26 -59 38 -24 19 -39 22 -114 21 -47 -1 -101 -5
-119 -9z"/>
<path d="M14718 20492 c-34 -3 -38 -6 -53 -52 -11 -34 -29 -59 -58 -83 -83
-68 -96 -85 -113 -143 -9 -33 -27 -73 -40 -90 -13 -17 -30 -51 -37 -75 -8 -24
-26 -63 -40 -86 -15 -24 -33 -64 -39 -90 -7 -27 -22 -62 -34 -80 -15 -22 -24
-56 -28 -110 -4 -43 -14 -99 -22 -124 -23 -72 -63 -324 -80 -504 -4 -38 -16
-97 -27 -130 -14 -43 -21 -97 -25 -191 -4 -129 -4 -132 23 -178 24 -41 29 -63
35 -161 8 -108 16 -141 45 -175 8 -8 21 -44 30 -79 9 -35 29 -88 46 -119 20
-38 29 -69 29 -102 0 -57 22 -115 50 -130 10 -6 24 -29 31 -53 6 -23 24 -60
40 -81 17 -24 33 -64 40 -99 9 -46 20 -67 49 -96 50 -50 95 -119 119 -180 19
-51 43 -85 114 -163 20 -23 37 -50 37 -60 0 -11 17 -35 39 -56 87 -84 209
-230 215 -259 10 -42 85 -110 302 -273 26 -19 58 -48 73 -64 50 -56 86 -87
121 -107 19 -10 67 -40 105 -64 39 -25 88 -54 110 -65 22 -11 51 -28 65 -38
23 -17 80 -55 180 -118 50 -31 184 -94 202 -94 8 0 35 -14 61 -31 32 -21 66
-33 111 -40 39 -5 106 -27 167 -54 63 -28 116 -45 140 -45 21 0 56 -7 76 -15
21 -8 79 -19 128 -24 50 -6 140 -17 200 -25 160 -21 358 -31 630 -31 228 0
243 1 300 24 33 12 98 31 145 41 47 10 108 27 135 38 28 11 81 25 119 31 38 7
82 19 98 27 16 8 67 23 113 33 46 11 96 28 112 39 15 11 43 23 62 27 36 8 201
90 267 133 23 15 72 48 110 74 38 25 96 57 129 69 40 15 79 40 115 74 30 29
80 69 110 89 30 20 101 83 158 139 57 56 144 143 194 192 51 51 99 108 109
131 10 23 26 47 34 54 19 15 135 167 135 175 0 4 11 21 24 38 13 18 26 45 30
60 4 16 26 47 50 71 34 32 46 53 54 93 6 28 20 66 32 85 21 37 50 122 50 151
0 9 11 34 24 55 14 20 34 69 44 107 11 39 30 92 42 118 20 46 30 109 46 307 3
47 12 96 19 110 33 63 54 309 37 426 -5 39 -20 93 -33 120 -19 40 -24 73 -29
179 -5 98 -12 142 -27 180 -12 28 -32 86 -44 129 -13 44 -35 98 -49 120 -14
23 -32 61 -39 85 -7 25 -25 67 -41 95 -15 28 -33 69 -40 91 -7 22 -26 58 -41
79 -16 22 -29 45 -29 51 0 6 -18 29 -40 50 -27 27 -40 48 -40 66 0 29 -110
165 -240 298 -36 37 -92 99 -124 139 -33 41 -79 90 -104 110 -38 31 -52 37
-106 40 -49 2 -67 -1 -91 -17 -93 -64 -159 -98 -197 -105 -21 -4 -61 -17 -90
-30 -29 -12 -81 -30 -115 -40 -62 -17 -142 -55 -176 -85 -36 -31 -7 -142 62
-235 21 -28 46 -57 55 -65 10 -8 26 -31 36 -50 10 -20 46 -65 80 -100 33 -35
69 -80 80 -100 10 -21 26 -44 36 -52 9 -8 28 -38 41 -67 13 -29 33 -67 46 -83
22 -31 22 -33 22 -417 0 -380 0 -388 -22 -422 -12 -19 -29 -64 -39 -100 -10
-36 -30 -81 -44 -100 -31 -40 -50 -91 -50 -131 0 -16 -13 -43 -34 -68 -19 -23
-38 -51 -42 -64 -4 -12 -24 -41 -45 -64 -22 -24 -39 -49 -39 -57 0 -9 -34 -54
-75 -101 -41 -48 -75 -91 -75 -97 0 -11 -160 -169 -231 -228 -23 -19 -56 -46
-73 -61 -27 -21 -89 -68 -186 -136 -13 -10 -47 -30 -75 -44 -27 -14 -84 -43
-125 -64 -144 -76 -431 -168 -590 -190 -58 -8 -127 -22 -155 -31 -41 -14 -102
-18 -350 -21 -294 -4 -302 -4 -395 21 -52 13 -131 30 -175 37 -44 6 -93 20
-110 30 -16 9 -52 23 -80 30 -27 6 -63 20 -80 30 -16 9 -52 25 -80 34 -27 10
-57 23 -65 30 -21 18 -107 66 -228 125 -56 28 -109 61 -117 74 -8 13 -33 28
-54 35 -28 8 -50 26 -81 65 -23 30 -45 56 -50 58 -15 6 -195 181 -207 202 -7
11 -12 40 -13 64 0 28 -8 55 -25 80 -15 23 -36 87 -55 172 -43 183 -44 282 -7
453 15 71 27 141 27 156 0 16 9 40 21 55 13 16 28 65 41 129 16 80 26 108 47
132 15 17 33 49 40 73 7 24 20 51 29 60 18 19 62 118 62 142 1 23 78 112 156
179 40 34 75 72 78 84 3 12 6 48 6 80 0 53 -3 61 -34 93 -19 19 -42 58 -51 86
-9 28 -31 69 -48 90 -18 22 -48 59 -67 83 -19 23 -42 56 -51 72 -23 42 -90 86
-174 113 -38 13 -81 31 -95 41 -14 9 -47 20 -75 23 -31 4 -56 13 -66 25 -9 11
-33 24 -54 30 -21 5 -55 22 -75 36 -21 15 -61 32 -89 40 -28 7 -65 22 -83 33
-35 21 -89 29 -150 24z"/>
<path d="M17305 20009 c-103 -69 -100 -65 -98 -185 2 -89 6 -114 28 -159 14
-30 25 -67 25 -83 0 -52 31 -194 50 -232 26 -50 33 -101 25 -165 -5 -44 -10
-55 -25 -55 -26 0 -118 121 -146 193 -13 34 -35 72 -48 86 -13 15 -26 38 -30
53 -3 15 -19 42 -35 60 -15 18 -37 51 -49 73 -23 46 -103 125 -152 150 -41 21
-135 16 -218 -11 -62 -20 -74 -36 -92 -118 -20 -94 -8 -140 53 -201 29 -28 70
-64 91 -81 174 -130 216 -158 276 -179 23 -8 53 -23 68 -34 15 -10 43 -22 62
-26 55 -12 85 -31 104 -68 22 -40 16 -76 -16 -107 -28 -26 -43 -25 -102 5 -27
14 -59 25 -70 25 -12 0 -44 11 -73 24 -28 13 -87 30 -130 36 -43 7 -107 22
-143 33 -51 16 -93 21 -194 21 l-128 1 -40 -45 -40 -45 4 -95 c3 -87 5 -98 33
-134 49 -64 157 -94 241 -66 16 5 88 16 160 24 86 9 145 21 170 34 21 11 66
22 99 26 33 4 100 14 148 23 101 19 121 12 97 -33 -13 -23 -131 -124 -146
-124 -16 0 -226 -101 -276 -134 -54 -34 -216 -199 -230 -234 -4 -9 -7 -52 -7
-96 -1 -78 -1 -78 37 -113 20 -19 50 -41 66 -50 39 -20 174 -20 214 1 40 21
128 127 142 173 7 21 23 49 36 63 13 14 30 45 39 69 8 24 28 59 45 77 16 19
33 47 36 62 4 15 17 41 30 57 12 17 29 47 37 67 9 20 27 44 41 53 22 15 31 16
56 5 48 -20 53 -41 30 -107 -11 -31 -20 -67 -20 -79 0 -11 -11 -42 -25 -67
-26 -50 -55 -173 -55 -235 0 -22 -11 -59 -25 -86 -21 -40 -25 -61 -25 -133 0
-80 2 -90 32 -136 17 -27 46 -56 62 -64 17 -8 42 -21 56 -28 52 -30 166 17
229 94 l36 44 0 106 c0 95 -3 112 -27 161 -14 30 -29 80 -33 110 -3 30 -22
102 -41 159 -30 90 -34 114 -32 185 3 74 5 81 24 84 27 4 128 -91 137 -129 4
-14 18 -41 32 -60 13 -19 34 -54 45 -78 26 -56 102 -171 130 -196 11 -10 28
-34 37 -53 16 -34 101 -104 148 -122 39 -15 131 -12 171 5 46 19 64 63 64 160
0 113 -14 154 -71 214 -28 28 -54 51 -59 51 -5 0 -21 11 -37 24 -15 13 -46 29
-68 36 -22 7 -56 22 -75 35 -82 52 -177 105 -189 105 -7 0 -25 9 -39 21 -15
11 -46 34 -70 50 -28 19 -42 36 -40 47 6 27 185 21 253 -8 28 -12 90 -26 140
-31 50 -5 117 -14 150 -20 77 -14 72 -14 195 5 167 27 220 72 220 187 0 66
-17 96 -68 119 -26 12 -65 31 -87 43 -34 19 -56 22 -150 21 -90 0 -125 -5
-190 -26 -44 -14 -102 -29 -130 -33 -27 -4 -68 -17 -90 -30 -22 -12 -57 -28
-78 -35 -22 -7 -51 -18 -65 -26 -39 -20 -58 -17 -81 11 -27 35 -35 80 -21 114
12 29 65 61 102 61 21 0 110 46 163 85 17 12 47 28 68 34 79 26 205 111 273
183 l44 47 0 93 c-1 85 -3 96 -28 133 -53 76 -197 109 -287 65 -32 -16 -56
-40 -99 -104 -31 -46 -56 -88 -56 -93 0 -5 -11 -24 -25 -43 -13 -18 -32 -54
-42 -79 -9 -25 -29 -61 -45 -79 -15 -18 -30 -45 -33 -60 -8 -39 -56 -130 -82
-154 -25 -24 -81 -27 -94 -6 -10 16 -10 34 0 161 6 76 12 104 30 127 11 16 30
68 41 114 11 46 32 109 46 140 20 45 26 73 27 144 2 82 0 91 -27 130 -18 27
-41 45 -64 53 -20 7 -59 23 -87 35 -27 13 -59 24 -70 24 -11 0 -47 -19 -80
-41z m251 -1062 c29 -34 31 -76 4 -134 -22 -49 -43 -57 -137 -57 -71 1 -104
18 -128 65 -13 25 -14 37 -4 67 24 76 54 93 162 89 72 -2 81 -5 103 -30z"/>
<path d="M2508 18086 c-23 -17 -27 -51 -38 -366 -6 -184 -14 -283 -25 -325 -9
-33 -20 -76 -25 -95 -18 -68 -11 -200 15 -302 14 -53 29 -148 34 -210 11 -130
14 -141 47 -163 16 -10 26 -29 30 -54 4 -23 23 -62 45 -91 22 -29 39 -57 39
-63 0 -6 31 -41 69 -77 38 -37 81 -86 95 -109 15 -22 31 -41 36 -41 5 0 25
-15 44 -32 46 -44 92 -78 227 -168 103 -70 158 -110 234 -175 17 -14 57 -48
89 -76 33 -27 69 -65 80 -84 22 -36 81 -85 102 -85 7 0 23 17 36 38 27 44 28
82 4 324 -8 90 -20 228 -25 308 -9 130 -13 152 -39 205 -20 41 -32 84 -37 132
-6 58 -13 80 -35 108 -17 22 -34 62 -43 101 -10 42 -25 76 -45 98 -16 18 -32
50 -36 69 -4 21 -17 45 -32 56 -14 11 -39 52 -55 91 -29 68 -30 73 -14 96 9
14 30 33 47 44 l31 19 59 -30 c38 -19 66 -42 82 -67 13 -20 35 -48 50 -61 14
-14 26 -29 26 -34 0 -5 19 -29 43 -52 53 -53 89 -100 112 -145 10 -19 28 -43
41 -53 13 -10 30 -40 38 -66 8 -27 28 -68 44 -90 17 -23 35 -64 41 -90 6 -30
21 -60 39 -77 24 -25 30 -42 41 -118 15 -108 22 -122 61 -131 39 -9 53 4 69
56 7 23 22 54 33 69 27 37 37 131 37 330 0 210 -12 359 -32 396 -30 55 -36 69
-51 124 -9 31 -29 71 -45 89 -17 19 -33 43 -37 53 -3 10 -9 18 -14 18 -5 0
-34 24 -63 54 -30 30 -67 62 -83 72 -16 10 -48 33 -72 51 -24 18 -49 33 -55
33 -6 0 -20 9 -32 20 -12 11 -46 24 -76 30 -29 6 -65 18 -79 28 -14 10 -53 26
-88 36 -35 9 -78 26 -95 36 -18 11 -57 24 -87 31 -30 6 -73 21 -95 34 -22 12
-65 28 -94 34 -30 6 -70 23 -87 36 -18 14 -38 25 -45 25 -23 0 -200 92 -206
106 -3 8 -11 14 -18 14 -6 0 -40 18 -74 40 -65 42 -111 51 -143 26z"/>
<path d="M6245 17823 c-11 -3 -32 -14 -46 -24 -15 -10 -51 -24 -80 -30 -29 -6
-69 -22 -89 -34 -19 -13 -56 -26 -83 -30 -26 -3 -72 -17 -101 -31 -31 -14 -87
-28 -129 -33 -41 -5 -103 -20 -138 -34 -49 -19 -91 -26 -178 -31 -83 -5 -126
-12 -160 -27 -25 -11 -94 -26 -154 -34 -71 -9 -119 -20 -143 -34 -19 -12 -56
-26 -82 -32 -53 -13 -116 -49 -172 -96 -20 -18 -41 -33 -46 -33 -16 0 -103
-107 -110 -134 -3 -15 -20 -40 -36 -56 -31 -31 -48 -75 -48 -123 0 -16 -14
-61 -32 -100 l-32 -72 -3 -210 c-2 -115 0 -277 4 -360 l8 -150 28 -9 c45 -16
60 1 74 83 9 55 19 81 41 105 17 20 32 50 36 74 3 24 18 55 35 74 15 18 33 49
40 69 6 20 23 47 37 60 14 13 33 38 41 54 15 28 187 205 199 205 3 0 38 29 78
64 39 35 81 67 94 70 12 4 22 11 22 17 0 5 19 21 43 36 23 16 47 34 52 41 6 7
41 28 79 47 110 55 164 45 181 -33 6 -30 2 -36 -53 -90 -33 -31 -81 -75 -106
-97 -25 -22 -55 -56 -68 -75 -12 -19 -50 -63 -84 -97 -37 -37 -69 -80 -79
-106 -9 -25 -29 -54 -45 -65 -19 -15 -30 -34 -35 -61 -4 -27 -16 -49 -36 -66
-24 -20 -32 -38 -43 -95 -10 -51 -22 -79 -44 -104 -24 -27 -31 -46 -37 -101
-5 -51 -13 -74 -30 -90 -33 -34 -43 -91 -51 -290 -6 -160 -5 -182 9 -194 25
-20 99 -6 127 24 12 13 36 29 53 36 18 7 39 18 48 26 9 8 40 23 70 33 29 11
57 26 61 34 9 15 49 30 111 41 20 3 37 9 37 13 0 14 55 40 100 47 25 4 58 18
73 31 15 13 46 28 67 34 21 6 52 21 67 34 15 13 43 31 61 40 17 9 32 20 32 24
0 4 14 16 32 27 28 16 49 34 109 91 52 50 99 106 99 118 0 8 15 27 34 43 20
17 38 43 44 66 6 21 24 53 41 72 22 25 31 48 36 90 4 32 21 81 38 113 23 45
33 81 43 166 9 71 22 127 39 163 21 48 26 78 35 222 17 281 31 422 51 509 10
46 19 108 19 138 0 57 -3 60 -55 47z"/>
<path d="M13059 17444 c-20 -8 -42 -26 -49 -39 -19 -35 -9 -139 16 -166 21
-23 71 -112 129 -226 20 -40 40 -73 45 -73 11 0 40 -100 40 -139 0 -57 -61
-93 -121 -72 -50 17 -187 115 -264 187 -84 78 -119 95 -199 96 -71 1 -105 -14
-157 -69 -50 -52 -69 -93 -69 -148 0 -84 38 -139 134 -189 62 -33 112 -33 230
-2 80 21 148 28 266 29 83 1 108 -3 114 -19 9 -24 -32 -108 -72 -146 -42 -39
-151 -118 -164 -118 -4 0 -27 -13 -50 -30 -22 -16 -47 -30 -54 -30 -16 0 -70
-54 -111 -111 -60 -84 -49 -113 88 -228 48 -41 149 -58 240 -42 34 6 67 15 72
20 9 9 16 49 47 261 5 36 18 112 30 169 17 90 24 109 52 138 17 18 39 33 49
33 29 0 66 -38 89 -92 12 -29 31 -63 43 -75 14 -16 24 -49 33 -119 10 -67 23
-116 44 -159 16 -34 30 -69 30 -79 0 -32 28 -84 49 -91 31 -10 127 13 191 46
104 52 158 156 135 259 -10 46 -88 116 -149 135 -27 8 -64 24 -82 34 -18 11
-49 23 -68 26 -36 7 -109 58 -188 130 -41 37 -47 47 -39 67 7 20 16 23 67 25
107 5 287 25 313 35 14 6 81 16 149 23 90 9 127 17 142 30 25 22 43 111 35
172 -16 120 -24 141 -77 182 -110 88 -233 60 -319 -74 -45 -69 -204 -220 -266
-253 -33 -18 -88 -15 -106 6 -21 23 -22 111 -1 167 8 22 24 67 35 100 12 33
36 81 54 107 30 41 35 57 41 131 9 117 0 171 -32 186 -39 17 -320 14 -365 -5z"/>
<path d="M1760 16340 c-169 -5 -188 -7 -223 -27 -21 -13 -59 -28 -85 -35 -26
-6 -60 -20 -75 -31 -16 -11 -47 -25 -70 -32 -23 -7 -64 -24 -91 -39 -27 -14
-56 -26 -66 -26 -9 0 -31 -11 -49 -24 -18 -14 -56 -30 -84 -37 -29 -6 -74 -23
-101 -36 -26 -13 -73 -28 -103 -33 -30 -5 -78 -20 -106 -34 -35 -16 -78 -26
-132 -31 -133 -10 -146 -14 -160 -48 -18 -43 -5 -78 52 -134 80 -80 275 -243
290 -243 5 0 25 -15 45 -32 20 -18 55 -46 78 -63 23 -16 56 -42 73 -57 18 -15
57 -47 87 -72 30 -26 69 -58 87 -74 17 -15 53 -43 78 -62 25 -19 60 -47 77
-62 17 -16 38 -28 47 -28 9 0 36 -13 61 -30 24 -16 57 -32 71 -35 15 -4 39
-17 52 -31 13 -13 45 -30 70 -38 25 -7 59 -23 74 -34 16 -11 42 -24 59 -28 16
-4 54 -19 84 -33 55 -26 57 -26 315 -27 143 -1 310 2 370 6 61 4 157 10 215
14 58 3 131 10 163 16 31 5 101 12 155 15 244 14 246 14 265 36 9 12 17 30 17
42 0 23 -91 114 -165 164 -27 18 -70 49 -95 68 -25 19 -56 43 -70 52 -14 9
-40 30 -58 45 -18 15 -40 28 -48 28 -8 0 -25 10 -37 23 -12 12 -47 30 -78 40
-30 9 -66 28 -79 42 -13 14 -31 25 -39 25 -9 0 -35 11 -58 24 -23 13 -67 32
-98 40 -30 9 -76 28 -101 41 -26 14 -62 25 -80 25 -40 0 -75 13 -97 35 -12 11
-48 19 -114 26 -53 6 -124 19 -157 31 -34 11 -84 22 -113 25 -69 7 -93 30 -93
88 0 36 5 48 28 65 27 22 30 22 312 17 271 -4 289 -6 361 -30 41 -14 111 -28
155 -32 77 -7 134 -26 134 -45 0 -5 24 -14 54 -20 32 -6 70 -23 92 -41 20 -16
40 -29 45 -29 8 0 48 -34 111 -96 27 -26 101 -50 119 -39 5 4 9 22 9 42 0 28
-8 44 -32 68 -18 18 -53 53 -78 79 -25 25 -48 46 -52 46 -11 0 -131 102 -243
207 -90 85 -200 168 -314 238 -18 11 -49 32 -68 48 -22 16 -48 27 -68 27 -18
0 -50 12 -76 30 -42 28 -52 30 -155 32 -60 2 -192 1 -294 -2z"/>
<path d="M4040 14977 c-62 -16 -60 10 -62 -706 -1 -599 1 -654 16 -669 16 -16
224 -17 2989 -22 l2972 -5 82 -39 c67 -31 90 -48 122 -90 49 -65 138 -222 147
-261 4 -16 24 -49 45 -72 22 -24 39 -49 39 -57 0 -8 11 -28 25 -45 14 -16 33
-52 42 -78 9 -26 27 -64 40 -83 12 -19 28 -62 35 -95 9 -47 19 -67 44 -90 26
-24 37 -45 49 -100 8 -39 22 -83 30 -100 32 -64 55 -151 55 -206 0 -48 4 -63
27 -90 23 -27 28 -44 33 -118 4 -47 12 -99 18 -115 16 -37 7 -65 -26 -77 -27
-10 -582 -14 -672 -4 -149 15 -233 28 -281 41 -76 22 -315 30 -365 13 -39 -13
-96 -15 -564 -19 -159 -2 -220 1 -273 14 -84 20 -119 20 -183 2 -60 -18 -235
-46 -329 -52 -38 -3 -86 -11 -105 -19 -19 -7 -88 -18 -153 -24 -64 -6 -141
-20 -170 -31 -28 -10 -89 -24 -133 -30 -45 -6 -106 -19 -137 -30 -31 -11 -77
-22 -104 -25 -46 -4 -217 -80 -255 -112 -9 -8 -55 -21 -103 -28 -47 -7 -93
-19 -103 -27 -9 -8 -33 -20 -52 -27 -19 -7 -47 -19 -61 -26 -14 -8 -66 -26
-115 -40 -78 -22 -178 -63 -239 -97 -11 -7 -42 -24 -70 -39 -71 -38 -151 -87
-231 -139 -38 -25 -109 -65 -157 -88 -81 -40 -108 -57 -217 -138 -19 -14 -57
-42 -85 -62 -48 -36 -74 -58 -140 -121 -56 -52 -110 -89 -142 -96 -18 -3 -43
-18 -55 -32 -13 -15 -44 -48 -70 -75 -27 -27 -48 -53 -48 -57 0 -4 -51 -51
-112 -104 -62 -53 -133 -122 -158 -153 -25 -30 -55 -67 -68 -81 -13 -13 -30
-42 -38 -62 -9 -23 -43 -63 -84 -99 -54 -49 -72 -72 -85 -112 -10 -31 -27 -57
-45 -70 -32 -23 -104 -147 -114 -196 -4 -17 -23 -46 -42 -65 -30 -29 -50 -64
-123 -219 -6 -14 -27 -51 -46 -84 -21 -35 -35 -71 -35 -92 0 -22 -9 -44 -29
-66 -27 -32 -61 -141 -61 -200 0 -13 -14 -50 -31 -83 -23 -45 -32 -78 -35
-129 -4 -53 -10 -75 -28 -96 -19 -23 -24 -44 -30 -121 -3 -52 -11 -112 -16
-134 -5 -22 -10 -181 -10 -353 0 -257 3 -318 15 -342 16 -32 65 -265 65 -313
0 -50 25 -131 50 -165 13 -17 27 -50 31 -74 14 -76 37 -146 58 -175 11 -15 25
-50 31 -77 6 -27 22 -62 35 -78 14 -16 25 -35 25 -41 0 -6 18 -38 39 -71 22
-34 45 -83 51 -111 7 -30 22 -62 40 -80 15 -16 35 -46 43 -65 8 -19 44 -64 79
-100 34 -36 70 -81 80 -102 9 -20 26 -46 38 -58 12 -12 30 -41 40 -64 12 -30
37 -58 75 -87 32 -24 61 -48 66 -54 62 -77 214 -241 336 -363 126 -127 162
-157 215 -181 35 -16 74 -41 88 -55 13 -15 56 -45 95 -67 38 -22 93 -58 120
-80 28 -22 78 -53 113 -70 35 -17 102 -55 150 -85 47 -30 91 -54 97 -54 6 0
32 -13 58 -29 25 -17 64 -35 87 -41 22 -6 56 -22 76 -35 19 -13 56 -27 82 -31
25 -4 67 -17 92 -30 25 -12 63 -26 85 -30 22 -4 76 -19 120 -35 44 -15 103
-30 130 -34 28 -4 77 -16 110 -27 33 -12 109 -27 169 -34 89 -10 113 -17 133
-36 l25 -23 506 -3 c545 -3 767 6 900 38 46 11 95 20 109 20 14 0 37 8 51 19
32 22 49 28 156 52 45 10 119 29 165 43 46 14 94 26 108 26 13 0 43 9 66 20
23 11 59 23 80 27 22 3 55 20 78 39 26 21 55 35 84 40 25 3 55 14 68 23 12 10
65 39 117 65 52 27 102 54 110 62 9 7 64 38 123 68 59 30 121 66 138 80 17 14
34 26 38 26 4 0 16 9 28 19 11 10 34 26 52 36 29 14 129 81 211 140 104 74
391 326 430 376 19 26 62 70 96 100 34 30 83 80 110 112 27 32 83 97 124 145
42 48 82 102 89 120 7 17 17 32 21 32 11 0 89 103 124 162 15 26 34 52 42 59
9 7 26 33 39 58 12 25 32 54 43 64 11 10 26 33 33 50 7 18 25 46 40 62 15 17
37 51 48 76 11 25 30 54 42 65 12 10 30 37 40 59 11 22 30 55 43 72 13 18 27
49 31 70 3 20 24 61 46 92 21 30 39 61 39 69 0 8 13 38 29 66 16 28 34 71 41
96 6 25 27 74 45 110 22 43 37 91 43 138 7 44 23 98 43 139 29 59 33 79 37
172 4 106 11 130 53 182 14 18 24 49 29 95 4 38 15 96 23 129 26 96 36 205 48
517 13 325 6 869 -13 1093 -18 207 -17 253 7 272 26 19 123 9 179 -19 22 -11
78 -28 125 -38 47 -10 101 -26 119 -35 18 -9 66 -21 105 -27 40 -5 110 -20
157 -34 60 -17 140 -28 270 -38 147 -12 205 -21 285 -45 54 -16 105 -37 111
-46 21 -28 37 -153 38 -285 1 -69 -3 -280 -8 -470 -9 -364 -2 -495 31 -569 11
-25 18 -82 23 -191 5 -113 13 -177 30 -235 17 -62 21 -97 17 -155 -3 -57 0
-87 14 -125 10 -27 25 -108 34 -180 9 -71 26 -166 40 -210 13 -44 29 -129 35
-190 9 -87 18 -124 42 -175 27 -56 32 -79 35 -165 5 -121 8 -139 30 -160 9
-10 24 -52 34 -94 10 -42 22 -94 28 -116 6 -22 8 -56 5 -75 -5 -29 0 -42 24
-72 24 -30 30 -50 36 -109 5 -58 13 -84 42 -131 26 -43 39 -79 49 -139 8 -55
19 -87 34 -103 11 -12 21 -27 21 -32 0 -6 19 -41 42 -79 22 -38 49 -95 58
-126 10 -32 27 -71 38 -87 12 -16 30 -61 41 -100 10 -39 31 -90 44 -114 14
-24 28 -58 32 -76 4 -19 20 -48 36 -67 16 -18 36 -54 43 -79 8 -25 26 -60 41
-77 14 -18 29 -45 32 -60 3 -16 21 -45 39 -65 19 -19 34 -37 34 -38 0 -1 5
-29 11 -62 12 -66 40 -120 104 -199 24 -29 49 -71 55 -94 6 -24 36 -72 73
-117 34 -42 73 -92 86 -112 13 -21 30 -41 37 -45 8 -4 26 -29 41 -55 15 -26
37 -60 50 -75 13 -16 23 -35 23 -43 0 -8 35 -50 79 -93 53 -52 81 -88 86 -110
4 -18 18 -39 33 -48 46 -29 106 -85 122 -114 54 -98 287 -298 482 -412 26 -15
55 -40 64 -57 10 -16 40 -41 68 -56 28 -15 66 -38 85 -51 49 -33 106 -31 163
7 47 31 124 115 148 160 7 14 26 41 41 60 16 19 35 53 44 74 9 22 27 54 39 70
13 17 30 48 40 68 9 21 23 41 30 45 31 19 49 63 44 108 -4 35 -15 55 -46 89
-22 24 -43 57 -47 74 -3 18 -11 34 -16 38 -5 3 -22 24 -36 47 -14 23 -36 50
-49 59 -12 10 -28 35 -35 56 -20 62 -89 134 -149 156 -29 10 -67 31 -84 46
-47 40 -121 80 -176 94 -27 7 -71 28 -97 47 -73 51 -373 385 -373 415 0 8 -13
28 -29 45 -17 17 -33 45 -37 62 -8 41 -47 118 -94 187 -24 35 -45 84 -58 135
-23 93 -34 118 -66 162 -16 22 -25 51 -29 93 -3 42 -17 85 -41 135 -24 50 -37
91 -40 130 -3 43 -10 63 -29 83 -29 31 -32 41 -51 147 -7 44 -26 110 -40 147
-15 36 -33 102 -40 145 -8 43 -24 106 -36 138 -11 33 -24 92 -27 130 -3 39
-12 81 -19 96 -7 14 -16 85 -20 159 -5 98 -12 142 -24 165 -13 23 -19 64 -23
169 -6 125 -8 141 -28 162 -19 20 -23 37 -24 101 -4 147 -25 438 -34 483 -6
28 -9 510 -7 1285 3 1229 6 1379 37 1499 6 21 9 64 8 95 -7 142 -1 228 20 277
17 42 20 75 23 231 3 176 4 182 28 215 23 31 25 40 22 131 -1 70 2 105 12 126
8 15 20 82 25 149 6 67 18 154 26 194 8 40 24 137 35 216 14 103 25 153 40
178 15 23 20 43 16 61 -4 16 0 66 9 113 8 47 18 105 21 130 4 25 22 77 40 115
33 71 54 192 54 317 0 58 19 131 38 150 10 10 199 14 895 16 485 2 897 0 914
-3 18 -3 38 -15 44 -26 14 -27 2 -75 -26 -102 -18 -17 -24 -37 -29 -92 -4 -47
-14 -86 -32 -120 -30 -56 -39 -117 -53 -355 -5 -85 -10 -158 -10 -161 -1 -3
-14 -23 -30 -43 -28 -35 -29 -39 -29 -154 0 -64 -7 -175 -17 -247 -10 -71 -17
-169 -16 -216 2 -78 0 -93 -27 -150 l-30 -64 -5 -290 c-4 -276 -6 -293 -28
-350 l-24 -60 -1 -530 c0 -326 -5 -571 -12 -637 -8 -76 -8 -140 -1 -215 5 -60
12 -373 15 -697 6 -582 7 -590 28 -619 18 -25 22 -47 27 -185 6 -141 9 -164
34 -222 23 -56 28 -81 30 -180 2 -76 9 -128 19 -152 9 -21 16 -54 16 -75 0
-21 9 -71 20 -112 11 -41 27 -135 36 -210 11 -101 22 -148 40 -186 25 -50 54
-188 54 -258 0 -23 10 -52 25 -76 20 -30 28 -59 36 -132 10 -107 30 -183 60
-233 11 -20 23 -65 28 -108 5 -41 17 -89 27 -107 11 -19 25 -43 31 -55 7 -11
13 -30 13 -41 0 -37 30 -119 50 -141 12 -11 32 -51 45 -88 13 -37 33 -79 44
-95 11 -15 24 -47 30 -70 5 -23 20 -59 34 -79 28 -41 107 -202 107 -217 0 -30
24 -87 50 -120 17 -21 33 -56 37 -79 4 -29 17 -52 44 -78 21 -21 44 -56 50
-78 7 -21 23 -49 35 -61 13 -13 24 -33 24 -46 0 -32 25 -89 54 -124 14 -16 28
-39 31 -51 4 -13 18 -35 31 -49 26 -27 78 -106 117 -179 14 -25 38 -54 53 -66
16 -12 35 -38 43 -60 19 -53 86 -149 122 -175 16 -11 38 -37 50 -57 63 -117
115 -179 176 -211 13 -6 32 -30 43 -51 11 -22 37 -51 58 -64 21 -13 46 -36 56
-51 10 -15 55 -63 100 -108 78 -77 121 -112 276 -224 36 -26 90 -68 120 -93
93 -78 185 -130 241 -137 50 -6 51 -5 100 43 28 27 75 88 106 136 30 48 65 94
77 101 12 8 28 35 35 58 14 46 62 120 115 177 26 28 31 41 31 82 0 36 -6 54
-22 72 -11 13 -36 51 -54 86 -17 34 -56 89 -84 122 -29 34 -55 74 -58 89 -6
28 -52 78 -132 141 -22 17 -90 55 -151 85 -63 29 -131 70 -155 92 -24 22 -64
49 -89 60 -40 18 -88 61 -130 118 -8 11 -35 35 -60 54 -25 19 -51 42 -58 50
-39 49 -81 110 -96 138 -9 18 -25 41 -36 51 -11 10 -31 46 -44 80 -13 33 -35
73 -49 88 -14 15 -31 50 -37 78 -7 28 -23 68 -36 89 -13 20 -34 61 -45 90 -11
28 -31 71 -45 94 -13 23 -24 54 -24 70 0 15 -7 37 -15 47 -8 11 -15 30 -15 43
0 13 -13 49 -29 81 -17 35 -30 80 -34 117 -3 38 -15 77 -31 106 -15 26 -30 74
-36 116 -11 81 -16 96 -46 143 -14 22 -25 59 -29 100 -4 36 -15 104 -26 152
-10 48 -19 100 -19 114 0 15 -11 50 -25 78 -14 28 -29 83 -34 121 -5 39 -18
93 -29 120 -14 36 -21 89 -26 189 -5 98 -12 149 -23 170 -10 19 -16 50 -14 79
7 136 -8 297 -34 372 -16 44 -18 89 -19 355 -1 296 -2 308 -28 405 -22 83 -27
128 -31 270 -5 174 0 204 34 241 18 20 19 26 8 115 -8 59 -13 256 -13 534 -1
399 -3 445 -19 498 -22 68 -18 102 21 197 26 64 27 70 33 365 4 216 10 324 22
385 32 163 68 487 66 587 -2 100 8 139 48 185 11 12 15 50 17 150 2 96 8 148
21 188 10 32 21 102 24 165 4 71 13 124 24 149 12 27 17 65 17 130 0 85 2 96
30 139 22 36 30 60 30 95 0 103 29 281 53 329 27 53 38 111 42 222 2 59 7 77
24 95 l22 21 832 1 c458 0 849 4 869 8 22 4 45 17 58 33 19 25 20 38 20 457 0
400 -2 434 -19 472 -10 23 -24 45 -30 48 -6 4 -25 34 -41 66 -16 32 -34 61
-40 65 -6 4 -22 29 -35 56 -43 84 -87 134 -145 165 -52 27 -63 29 -190 32
-340 7 -15693 6 -15720 -1z m8564 -1392 c1352 -1 1379 -2 1393 -21 22 -29 13
-141 -14 -179 -21 -29 -25 -50 -48 -269 -4 -32 -17 -86 -30 -120 -26 -70 -31
-102 -45 -282 -6 -80 -18 -154 -30 -189 -23 -66 -36 -167 -45 -345 -6 -111
-10 -129 -33 -165 -25 -40 -25 -40 -14 -141 10 -95 10 -106 -13 -190 -19 -67
-25 -114 -25 -188 0 -137 2 -136 -159 -136 -132 0 -209 9 -301 35 -30 9 -100
20 -155 26 -55 6 -140 19 -190 30 -49 10 -121 23 -160 29 -183 26 -215 31
-285 50 -41 11 -111 22 -155 26 -44 3 -120 17 -170 30 -49 13 -103 26 -118 29
-34 7 -126 90 -132 119 -2 12 -9 53 -15 93 -8 50 -21 86 -41 117 -19 28 -33
67 -40 108 -5 37 -26 96 -49 143 -22 44 -42 101 -45 127 -3 26 -16 59 -28 75
-12 15 -28 55 -34 88 -7 34 -25 78 -42 101 -15 23 -34 59 -41 80 -7 21 -23 57
-35 79 -13 22 -31 65 -40 95 -10 30 -28 66 -40 80 -13 14 -32 45 -42 70 -11
25 -30 54 -42 64 -12 11 -24 37 -28 59 -6 43 -75 153 -124 200 -16 16 -38 45
-50 65 -11 20 -31 53 -45 72 -28 38 -26 81 6 114 20 21 86 37 110 28 8 -4 635
-7 1394 -7z m-2060 -3076 c66 -18 117 -23 281 -26 110 -2 210 -6 222 -8 52
-12 53 -23 53 -572 0 -585 -10 -798 -40 -866 -19 -43 -41 -142 -55 -252 -3
-27 -15 -68 -25 -90 -23 -48 -50 -149 -50 -185 0 -14 -10 -41 -23 -60 -28 -42
-57 -117 -57 -147 0 -12 -11 -34 -24 -50 -30 -36 -56 -97 -56 -133 0 -17 -13
-44 -35 -70 -19 -23 -38 -54 -41 -69 -4 -14 -17 -41 -31 -58 -13 -18 -32 -50
-41 -70 -42 -91 -196 -333 -212 -333 -4 0 -13 -14 -21 -32 -7 -17 -41 -63 -76
-102 -35 -39 -75 -92 -88 -118 -14 -26 -29 -50 -35 -53 -6 -4 -23 -25 -37 -48
-27 -43 -153 -172 -216 -219 -19 -15 -58 -58 -86 -95 -63 -84 -117 -130 -188
-158 -30 -13 -61 -32 -69 -43 -7 -11 -44 -42 -81 -68 -38 -26 -72 -53 -78 -59
-18 -21 -189 -141 -245 -172 -129 -73 -341 -172 -415 -194 -22 -7 -49 -18 -60
-25 -11 -7 -52 -20 -91 -28 -39 -8 -95 -24 -125 -35 -30 -11 -72 -23 -94 -26
-22 -4 -96 -20 -165 -35 -69 -16 -163 -32 -210 -35 -47 -3 -128 -11 -180 -17
-52 -5 -140 -11 -195 -12 -55 -2 -136 -9 -181 -15 -74 -12 -93 -11 -235 13
-85 14 -219 30 -299 36 -114 9 -151 15 -171 30 -14 10 -55 24 -90 30 -35 7
-84 22 -109 35 -57 29 -133 55 -185 62 -22 3 -53 12 -69 20 -16 8 -51 22 -79
30 -47 14 -304 137 -429 207 -32 17 -77 50 -100 72 -24 23 -63 54 -88 69 -25
15 -62 43 -82 61 -24 21 -53 36 -78 40 -29 5 -48 16 -68 41 -15 18 -41 50 -57
71 -48 57 -112 163 -125 205 -6 21 -23 58 -37 83 -47 84 -73 398 -39 476 12
28 16 69 16 159 0 112 2 126 31 197 21 54 33 101 36 156 5 60 11 84 28 105 37
44 47 71 56 148 7 62 13 80 39 109 18 21 30 46 30 63 0 16 11 39 24 54 14 15
36 50 51 78 14 28 36 60 49 70 13 10 28 38 34 62 6 24 21 52 33 63 12 10 31
39 44 64 13 25 51 72 86 105 35 33 86 95 115 138 32 48 76 98 117 132 37 30
75 67 84 83 36 55 178 192 237 228 61 37 71 45 156 123 24 23 47 41 51 41 4 0
21 11 37 25 17 14 48 32 71 40 22 7 78 39 125 69 46 31 87 56 91 56 4 0 57 27
116 60 60 33 128 63 150 66 24 4 56 20 81 40 22 19 44 34 49 34 5 0 26 11 47
24 20 13 53 27 72 31 19 4 49 16 66 26 17 10 62 29 100 43 38 13 96 36 129 50
36 15 79 26 108 26 33 0 59 7 85 24 25 16 57 26 100 29 42 3 76 14 108 32 28
17 67 29 102 32 31 3 62 9 67 13 22 18 126 39 218 45 54 3 128 13 165 21 47
10 95 12 158 8 79 -6 100 -4 160 17 38 12 98 25 134 28 36 3 382 5 769 4 683
-3 706 -4 785 -24z"/>
<path d="M2075 14643 c-16 -2 -58 -11 -93 -19 -34 -8 -114 -21 -177 -28 -86
-10 -120 -19 -140 -34 -15 -12 -47 -24 -71 -28 -26 -4 -58 -17 -75 -31 -16
-14 -50 -31 -75 -39 -87 -26 -214 -153 -240 -242 -8 -25 -25 -58 -39 -72 -16
-17 -29 -49 -38 -92 -10 -48 -23 -78 -46 -103 -17 -20 -31 -47 -31 -61 0 -29
-13 -58 -46 -96 -12 -15 -28 -52 -34 -81 -8 -40 -20 -63 -45 -87 -24 -23 -35
-43 -35 -63 0 -18 -11 -39 -30 -59 -37 -36 -50 -60 -50 -88 0 -12 -13 -34 -28
-48 -46 -43 -68 -136 -39 -160 7 -6 75 -15 152 -22 77 -6 169 -17 205 -26 95
-22 95 -22 210 -29 58 -4 132 -14 165 -22 138 -35 404 -35 536 0 32 8 99 18
150 22 64 5 104 13 125 26 17 10 64 26 105 35 41 9 92 27 115 40 22 13 47 24
55 24 22 0 180 82 207 107 14 13 30 23 36 23 6 0 35 16 63 35 29 19 56 35 62
35 5 0 29 16 53 35 23 19 65 51 91 72 27 21 54 44 60 51 7 7 20 21 31 30 10 9
30 30 45 47 14 16 74 78 133 137 59 59 114 122 121 141 8 19 29 44 46 56 26
18 31 29 31 61 0 38 -1 39 -42 45 -24 4 -218 5 -433 3 -380 -3 -391 -4 -440
-26 -27 -12 -95 -28 -150 -36 -55 -8 -120 -24 -144 -36 -24 -12 -69 -24 -100
-27 -31 -3 -74 -16 -96 -29 -22 -12 -60 -28 -85 -34 -25 -7 -65 -24 -90 -39
-37 -21 -57 -26 -116 -26 -90 0 -114 17 -114 81 0 39 4 46 38 69 20 14 69 48
107 75 39 27 89 57 113 66 23 9 42 20 42 24 0 4 17 15 38 26 20 10 49 29 64
41 15 11 50 26 78 32 28 6 64 20 79 32 30 22 91 38 151 39 21 0 51 10 72 25
21 14 59 28 85 31 63 8 160 68 143 89 -6 8 -26 17 -43 21 -18 3 -52 17 -77 30
-25 13 -62 24 -82 24 -45 0 -130 16 -178 34 -36 14 -232 27 -285 19z"/>
</g>
</svg>
